<mxfile host="65bd71144e">
    <diagram id="BSPOlfzM2KVxNrUdI5fY" name="Page-1">
        <mxGraphModel dx="729" dy="866" grid="1" gridSize="10" guides="1" tooltips="1" connect="1" arrows="1" fold="1" page="1" pageScale="1" pageWidth="850" pageHeight="1100" math="0" shadow="0">
            <root>
                <mxCell id="0"/>
                <mxCell id="1" parent="0"/>
                <mxCell id="15" value="addDevice" style="shape=table;childLayout=tableLayout;startSize=40;collapsible=0;recursiveResize=0;expand=0;fontStyle=1;" vertex="1" parent="1">
                    <mxGeometry x="140" y="60" width="850" height="280" as="geometry"/>
                </mxCell>
                <mxCell id="16" value="OverallDevice" style="shape=tableRow;horizontal=0;startSize=40;swimlaneHead=0;swimlaneBody=0;top=0;left=0;bottom=0;right=0;dropTarget=0;fillColor=none;collapsible=0;recursiveResize=0;expand=0;fontStyle=1;" vertex="1" parent="15">
                    <mxGeometry y="40" width="850" height="120" as="geometry"/>
                </mxCell>
                <mxCell id="17" value="Controller" style="swimlane;swimlaneHead=0;swimlaneBody=0;fontStyle=0;connectable=0;fillColor=none;startSize=40;collapsible=0;recursiveResize=0;expand=0;fontStyle=1;" vertex="1" parent="16">
                    <mxGeometry x="40" width="150" height="120" as="geometry">
                        <mxRectangle width="150" height="120" as="alternateBounds"/>
                    </mxGeometry>
                </mxCell>
                <mxCell id="18" value="Service" style="swimlane;swimlaneHead=0;swimlaneBody=0;fontStyle=0;connectable=0;fillColor=none;startSize=40;collapsible=0;recursiveResize=0;expand=0;fontStyle=1;" vertex="1" parent="16">
                    <mxGeometry x="190" width="331" height="120" as="geometry">
                        <mxRectangle width="331" height="120" as="alternateBounds"/>
                    </mxGeometry>
                </mxCell>
                <mxCell id="19" value="Repository" style="swimlane;swimlaneHead=0;swimlaneBody=0;fontStyle=0;connectable=0;fillColor=none;startSize=40;collapsible=0;recursiveResize=0;expand=0;fontStyle=1;" vertex="1" parent="16">
                    <mxGeometry x="521" width="177" height="120" as="geometry">
                        <mxRectangle width="177" height="120" as="alternateBounds"/>
                    </mxGeometry>
                </mxCell>
                <mxCell id="89" value="fetchOverallDevice" style="whiteSpace=wrap;html=1;" vertex="1" parent="19">
                    <mxGeometry x="28.5" y="50" width="120" height="60" as="geometry"/>
                </mxCell>
                <mxCell id="21" value="Entity" style="swimlane;swimlaneHead=0;swimlaneBody=0;fontStyle=0;connectable=0;fillColor=none;startSize=40;collapsible=0;recursiveResize=0;expand=0;fontStyle=1;" vertex="1" parent="16">
                    <mxGeometry x="698" width="152" height="120" as="geometry">
                        <mxRectangle width="152" height="120" as="alternateBounds"/>
                    </mxGeometry>
                </mxCell>
                <mxCell id="110" value="OverallDevice" style="swimlane;whiteSpace=wrap;html=1;startSize=20;" vertex="1" parent="21">
                    <mxGeometry x="31" y="50" width="90" height="60" as="geometry">
                        <mxRectangle x="32" y="45" width="120" height="30" as="alternateBounds"/>
                    </mxGeometry>
                </mxCell>
                <mxCell id="111" style="edgeStyle=none;html=1;exitX=0;exitY=0.5;exitDx=0;exitDy=0;entryX=1;entryY=0.5;entryDx=0;entryDy=0;" edge="1" parent="16" source="110" target="89">
                    <mxGeometry relative="1" as="geometry"/>
                </mxCell>
                <mxCell id="68" value="Device" style="shape=tableRow;horizontal=0;startSize=40;swimlaneHead=0;swimlaneBody=0;top=0;left=0;bottom=0;right=0;dropTarget=0;fillColor=none;collapsible=0;recursiveResize=0;expand=0;fontStyle=1;" vertex="1" parent="15">
                    <mxGeometry y="160" width="850" height="120" as="geometry"/>
                </mxCell>
                <mxCell id="69" style="swimlane;swimlaneHead=0;swimlaneBody=0;fontStyle=0;connectable=0;fillColor=none;startSize=0;collapsible=0;recursiveResize=0;expand=0;fontStyle=1;" vertex="1" parent="68">
                    <mxGeometry x="40" width="150" height="120" as="geometry">
                        <mxRectangle width="150" height="120" as="alternateBounds"/>
                    </mxGeometry>
                </mxCell>
                <mxCell id="70" style="swimlane;swimlaneHead=0;swimlaneBody=0;fontStyle=0;connectable=0;fillColor=none;startSize=0;collapsible=0;recursiveResize=0;expand=0;fontStyle=1;" vertex="1" parent="68">
                    <mxGeometry x="190" width="331" height="120" as="geometry">
                        <mxRectangle width="331" height="120" as="alternateBounds"/>
                    </mxGeometry>
                </mxCell>
                <mxCell id="105" style="edgeStyle=none;html=1;exitX=1;exitY=0.5;exitDx=0;exitDy=0;entryX=0;entryY=0.5;entryDx=0;entryDy=0;" edge="1" parent="70" source="87" target="103">
                    <mxGeometry relative="1" as="geometry">
                        <Array as="points">
                            <mxPoint x="170" y="35"/>
                        </Array>
                    </mxGeometry>
                </mxCell>
                <mxCell id="107" style="edgeStyle=none;html=1;exitX=1;exitY=0.5;exitDx=0;exitDy=0;entryX=0;entryY=0.5;entryDx=0;entryDy=0;" edge="1" parent="70" source="87" target="106">
                    <mxGeometry relative="1" as="geometry">
                        <Array as="points">
                            <mxPoint x="170" y="85"/>
                        </Array>
                    </mxGeometry>
                </mxCell>
                <mxCell id="87" value="addDevice" style="whiteSpace=wrap;html=1;" vertex="1" parent="70">
                    <mxGeometry x="20" y="30" width="120" height="60" as="geometry"/>
                </mxCell>
                <mxCell id="103" value="fetchOverallDevice" style="whiteSpace=wrap;html=1;" vertex="1" parent="70">
                    <mxGeometry x="190" y="20" width="120" height="30" as="geometry"/>
                </mxCell>
                <mxCell id="106" value="saveDevice" style="whiteSpace=wrap;html=1;" vertex="1" parent="70">
                    <mxGeometry x="190" y="70" width="120" height="30" as="geometry"/>
                </mxCell>
                <mxCell id="71" value="" style="swimlane;swimlaneHead=0;swimlaneBody=0;fontStyle=0;connectable=0;fillColor=none;startSize=0;collapsible=0;recursiveResize=0;expand=0;fontStyle=1;" vertex="1" parent="68">
                    <mxGeometry x="521" width="177" height="120" as="geometry">
                        <mxRectangle width="177" height="120" as="alternateBounds"/>
                    </mxGeometry>
                </mxCell>
                <mxCell id="108" value="saveDevice" style="whiteSpace=wrap;html=1;" vertex="1" parent="71">
                    <mxGeometry x="28.5" y="70" width="120" height="30" as="geometry"/>
                </mxCell>
                <mxCell id="73" style="swimlane;swimlaneHead=0;swimlaneBody=0;fontStyle=0;connectable=0;fillColor=none;startSize=0;collapsible=0;recursiveResize=0;expand=0;fontStyle=1;" vertex="1" parent="68">
                    <mxGeometry x="698" width="152" height="120" as="geometry">
                        <mxRectangle width="152" height="120" as="alternateBounds"/>
                    </mxGeometry>
                </mxCell>
                <mxCell id="112" value="Device" style="swimlane;whiteSpace=wrap;html=1;startSize=20;" vertex="1" parent="73">
                    <mxGeometry x="31" y="40" width="90" height="60" as="geometry">
                        <mxRectangle x="32" y="45" width="120" height="30" as="alternateBounds"/>
                    </mxGeometry>
                </mxCell>
                <mxCell id="109" style="edgeStyle=none;html=1;exitX=1;exitY=0.5;exitDx=0;exitDy=0;entryX=0;entryY=0.5;entryDx=0;entryDy=0;" edge="1" parent="68" source="106" target="108">
                    <mxGeometry relative="1" as="geometry"/>
                </mxCell>
                <mxCell id="113" style="edgeStyle=none;html=1;exitX=1;exitY=0.5;exitDx=0;exitDy=0;entryX=0;entryY=0.75;entryDx=0;entryDy=0;" edge="1" parent="68" source="108" target="112">
                    <mxGeometry relative="1" as="geometry"/>
                </mxCell>
                <mxCell id="104" style="edgeStyle=none;html=1;exitX=0;exitY=0.5;exitDx=0;exitDy=0;entryX=0.5;entryY=0;entryDx=0;entryDy=0;" edge="1" parent="15" source="89" target="103">
                    <mxGeometry relative="1" as="geometry">
                        <Array as="points">
                            <mxPoint x="440" y="120"/>
                        </Array>
                    </mxGeometry>
                </mxCell>
                <mxCell id="86" style="edgeStyle=none;html=1;exitX=0.5;exitY=0.5;exitDx=0;exitDy=0;exitPerimeter=0;entryX=0;entryY=0.5;entryDx=0;entryDy=0;" edge="1" parent="1" source="81" target="85">
                    <mxGeometry relative="1" as="geometry"/>
                </mxCell>
                <mxCell id="81" value="Client" style="shape=umlActor;verticalLabelPosition=bottom;verticalAlign=top;html=1;outlineConnect=0;" vertex="1" parent="1">
                    <mxGeometry x="60" y="250" width="30" height="60" as="geometry"/>
                </mxCell>
                <mxCell id="88" style="edgeStyle=none;html=1;exitX=1;exitY=0.5;exitDx=0;exitDy=0;entryX=0;entryY=0.5;entryDx=0;entryDy=0;" edge="1" parent="1" source="85" target="87">
                    <mxGeometry relative="1" as="geometry"/>
                </mxCell>
                <mxCell id="85" value="addDevice" style="whiteSpace=wrap;html=1;" vertex="1" parent="1">
                    <mxGeometry x="190" y="250" width="120" height="60" as="geometry"/>
                </mxCell>
            </root>
        </mxGraphModel>
    </diagram>
</mxfile>